# xmcd
#
# Track frame offsets:
#	150
#	13541
#	25692
#	38172
#	53432
#	64700
#	77374
#	90355
#	102954
#	115623
#	125644
#	136840
#	146369
#	165409
#	177293
#	188820
#	202125
#	216945
#	228830
#	241438
#	254032
#	265106
#	283568
#
# Disc length: 4056 seconds
#
# Revision: 0
# Processed by: cddbd v1.5.2PL0 Copyright (c) Steve Scherf et al.
# Submitted via: audiograbber 1.83.01
#
DISCID=310fd617
DTITLE=The Greatest Country Music Recordings Of All Time - Record 59 and 60
DYEAR=1900
DGENRE=
TTITLE0=Jimmie Rodgers - Daddy And Home
TTITLE1=Ray Whitley - Back In The Saddle Again
TTITLE2=Tex Ritter - High Noon
TTITLE3=Merle Travis - Re-Enlistment Blues
TTITLE4=Robert Mitchum - The Ballad Of Thunder Road
TTITLE5=Johnny Horton - North To Alaska
TTITLE6=Marty Robbins - The Hanging Tree
TTITLE7=Marty Robbins - Honky-Tonk Man
TTITLE8=Jim Reeves - Could I Be Falling In Love
TTITLE9=Hank Williams Jr. - Your Cheatin' Heart
TTITLE10=SSGT Barry Sadler - The Ballad Of The Green Berets
TTITLE11=Flatt and Scruggs - Foggy Mountain Breakdown
TTITLE12=Bobby Gentry - Ode To Billie Joe
TTITLE13=Johnny Cash - Flesh And Blood
TTITLE14=Johnny Cash - Ballad Of Little Fauss And Big Halsy
TTITLE15=Charley Pride - All His Children
TTITLE16=Eric Weissberg and Steve Mandrell - Dueling Banjos
TTITLE17=Johnny Paycheck - Take This Job And Shove It
TTITLE18=Jery Reed - East Bound And Down
TTITLE19=Willie Nelson - Midnight Rider
TTITLE20=Willie Nelson - On The Road Again
TTITLE21=Michael Murphy and Katy Moffat - Hard Country
TTITLE22=Tanya Tucker - Texas (When I Die)
EXTD=
EXTT0=
EXTT1=
EXTT2=
EXTT3=
EXTT4=
EXTT5=
EXTT6=
EXTT7=
EXTT8=
EXTT9=
EXTT10=
EXTT11=
EXTT12=
EXTT13=
EXTT14=
EXTT15=
EXTT16=
EXTT17=
EXTT18=
EXTT19=
EXTT20=
EXTT21=
EXTT22=
PLAYORDER=
